name new_emg_signals
nRows=30
nColumns=7
 
endheader
time	RGLTMED	RRF	RADDLONG	RBF	RTA	RGM
0.0	0.1793644490613538	0.0942468199575304	0.0212664727288067	0.1564502155703312	0.2016325339802351	0.0811648307800299
0.009999999999999787	0.1901496156616229	0.1156177490072956	0.0264263445147843	0.1670697248883526	0.2118152978807075	0.0633648856810679
0.019999999999999574	0.2010396131150567	0.1369884632138067	0.0316387110238914	0.1777933864099541	0.2220596685497556	0.0454885309395238
0.02999999999999936	0.2120281515932308	0.158345205899693	0.0369015066574217	0.1886154855569134	0.232359440170708	0.0275453643537641
0.040000000000000924	0.2231088063135542	0.1796741702082745	0.042212617973689	0.199530180677446	0.2427083225971569	0.0095450259641676
0.05000000000000071	0.2342750259055876	0.2009615169160691	0.0475698857126257	0.2105315101736856	0.2530999502963009	0.0085028161215967
0.0600000000000005	0.2455201409892794	0.222193392435122	0.052971106860608	0.2216133998261967	0.263527891533892	0.0265884796326015
0.06999999999999851	0.2568373729407397	0.2433559469774488	0.0584140367500012	0.2327696702956478	0.2739856577840789	0.0447022817004204
0.0799999999999983	0.2682198428225193	0.2644353528549875	0.0638963911882333	0.243994044782275	0.2844667133475707	0.0628345520374948
0.08999999999999808	0.2796605804566495	0.2854178228893685	0.0694158486117217	0.2552801568256837	0.2949644851616212	0.0809756456933228
0.09999999999999787	0.2911525336191749	0.3062896289067646	0.0749700522604804	0.2666215582284831	0.3054723727851626	0.0991159553638419
0.10999999999999588	0.3026885773359377	0.3270371202937922	0.0805566123698453	0.2780117270889349	0.3159837585421945	0.1172459232363909
0.11999999999999567	0.3142615232601176	0.3476467425907949	0.0861731083761735	0.2894440759286661	0.3264920178064143	0.1353560523581242
0.12999999999999545	0.3258641291135225	0.3681050560989113	0.0918170911336804	0.3009119599021114	0.336990529409881	0.1534369175206869
0.13999999999999702	0.337489108174819	0.3883987544774351	0.0974860851396389	0.3124086850752451	0.3474726861580991	0.1714791756573234
0.1499999999999968	0.3491291387996111	0.4085146833078997	0.1031775907650351	0.3239275167611999	0.3579319054333144	0.1894735757505695
0.1599999999999966	0.3607768739585399	0.4284398586012416	0.1088890864875837	0.3354616879009424	0.3683616398669635	0.207410968250678
0.16999999999999638	0.3724249507805831	0.4481614852240293	0.1146180311237329	0.3470044074767189	0.3787553880613901	0.2252823140073968
0.17999999999999616	0.3840660000889162	0.4676669752196032	0.1203618660561522	0.3585488689456237	0.3891067053402923	0.2430786927203534
0.18999999999999595	0.3956926559165043	0.4869439659996784	0.1261180174530823	0.3700882586804439	0.3994092145065676	0.2607913109159281
0.19999999999999574	0.4072975649879057	0.5059803383814602	0.1318838984758306	0.3816157644045876	0.409656616585536	0.2784115094605191
0.20999999999999552	0.4188733961529986	0.5247642344445722	0.1376569114705993	0.3931245836086969	0.4198427015306847	0.29593077062184
0.2199999999999971	0.4304128497576059	0.54328407518077	0.1434344501407385	0.4046079319367752	0.4299613588681421	0.3133407246914335
0.22999999999999687	0.4419086669356767	0.5615285779081021	0.1492139016952827	0.4160590515306998	0.4400065882550237	0.3306331561832442
0.23999999999999666	0.4533536388078831	0.5794867734197173	0.15499264896955	0.4274712193226203	0.4499725099255817	0.3478000096244983
0.24999999999999467	0.4647406155724352	0.5971480228363512	0.1607680725133564	0.4388377552654179	0.459853374997702	0.3648333949563018
0.25999999999999446	0.4760625154758131	0.614502034130114	0.1665375526422968	0.4501520304912476	0.4696435756108743	0.3817255925625324
0.26999999999999424	0.4873123336530713	0.6315388782860378	0.1722984714473436	0.4614074753880012	0.479337654865493	0.398469057946016
0.27999999999999403	0.4984831508293909	0.6482490050663647	0.1780482147580714	0.4725975875831242	0.4889303165323201	0.415056426071567
0.2899999999999938	0.5095681418755882	0.664623258341471	0.1837841740550361	0.4837159398239252	0.4984164345002432	0.4314805153951591
